<?xml version="1.0" encoding="utf-8"?>
<svg viewBox="100.041 -71.685 430.993 462.761" width="430.993" height="462.761" xmlns="http://www.w3.org/2000/svg">
  <path fill="transparent" opacity="1.000000" stroke="none" d="M 347.59 391.076 C 264.802 391.076 182.437 391.076 100.041 391.076 C 100.041 236.851 100.041 82.628 100.041 -71.685 C 243.639 -71.685 387.269 -71.685 531.034 -71.685 C 531.034 82.509 531.034 236.793 531.034 391.076 C 470.086 391.076 409.049 391.076 347.59 391.076 M 462.132 83.711 C 462.086 68.037 462.04 52.362 462.091 35.887 C 463.538 24.499 455.233 17.43 445.378 17.539 C 403.739 18 362.094 17.74 320.451 17.729 C 311.466 17.727 305.715 11.711 305.475 2.146 C 305.274 -5.856 299.272 -12.066 291.436 -12.071 C 237.174 -12.108 182.912 -12.083 128.649 -12.101 C 123.607 -12.103 119.465 -9.969 116.524 -5.743 C 112.758 -0.335 109.544 5.52 105.75 10.904 C 102.561 15.43 101.023 20.222 101.678 26.681 C 101.684 123.207 101.689 219.733 101.695 316.26 C 101.696 325.387 107.463 331.404 116.816 331.337 C 119.623 331.355 122.429 331.389 125.235 331.389 C 231.607 331.392 337.979 331.392 444.35 331.393 C 446.877 331.393 449.405 331.474 451.929 331.396 C 457.824 331.215 463.758 326.494 465.404 320.778 C 469.27 307.355 473.094 293.917 477.026 280.517 C 484.275 255.813 491.593 231.132 498.874 206.438 C 506.28 181.317 513.684 156.194 521.07 131.067 C 523.851 121.605 526.581 112.125 529.455 101.863 C 531.06 91.499 522.996 84.012 513.723 84.403 C 496.578 85.128 479.385 84.57 462.132 83.711 Z" style="" transform="matrix(0.9999999999999999, 0, 0, 0.9999999999999999, -5.684341886080802e-14, -5.684341886080802e-14)"/>
  <path fill="#41B3E2" opacity="1.000000" stroke="none" d="M 529.334 102.654 C 526.581 112.125 523.851 121.605 521.07 131.067 C 513.684 156.194 506.28 181.317 498.874 206.438 C 491.593 231.132 484.275 255.813 477.026 280.517 C 473.094 293.917 469.27 307.355 465.404 320.778 C 463.758 326.494 457.824 331.215 451.929 331.396 C 449.405 331.474 446.877 331.393 444.35 331.393 C 337.979 331.392 231.607 331.392 125.235 331.389 C 122.429 331.389 119.623 331.355 116.326 331.005 C 111.695 327.286 107.355 324.059 107.04 317.602 C 108.277 314.81 109.452 312.252 110.248 309.563 C 124.775 260.513 139.275 211.453 153.74 162.381 C 159.323 143.443 164.84 124.483 170.32 105.509 C 173.289 95.225 177.403 91.848 187.396 91.848 C 295.108 91.846 402.821 91.923 510.532 91.703 C 519.152 91.685 525.623 93.929 529.334 102.654 Z" style="" transform="matrix(0.9999999999999999, 0, 0, 0.9999999999999999, -5.684341886080802e-14, -5.684341886080802e-14)"/>
  <path fill="#379FC8" opacity="1.000000" stroke="none" d="M 106.801 317.775 C 107.355 324.059 111.695 327.286 115.936 330.949 C 107.463 331.404 101.696 325.387 101.695 316.26 C 101.689 219.733 101.684 123.207 102.004 26.161 C 106.658 19.007 111.132 12.477 115.273 5.711 C 118.908 -0.229 123.805 -3.085 130.388 -3.081 C 183.385 -3.047 236.383 -3.081 289.38 -3.044 C 298.661 -3.038 303.917 1.996 305.333 11.893 C 306.88 22.7 311.222 26.759 321.307 26.76 C 362.668 26.767 404.029 26.841 445.389 26.686 C 452.081 26.661 457.044 29.113 460.48 35.242 C 460.813 35.836 461.481 36.212 461.993 36.688 C 462.04 52.362 462.086 68.037 461.772 84.147 C 370.062 84.595 278.711 84.606 187.359 84.621 C 177.51 84.622 173.413 87.916 170.453 97.954 C 159.532 134.992 148.6 172.025 137.628 209.045 C 129.123 237.738 120.457 266.377 112.073 295.11 C 109.909 302.528 108.537 310.213 106.801 317.775 Z" style="" transform="matrix(0.9999999999999999, 0, 0, 0.9999999999999999, -5.684341886080802e-14, -5.684341886080802e-14)"/>
  <path fill="#41B3E1" opacity="1.000000" stroke="none" d="M 462.042 36.288 C 461.481 36.212 460.813 35.836 460.48 35.242 C 457.044 29.113 452.081 26.661 445.389 26.686 C 404.029 26.841 362.668 26.767 321.307 26.76 C 311.222 26.759 306.88 22.7 305.333 11.893 C 303.917 1.996 298.661 -3.038 289.38 -3.044 C 236.383 -3.081 183.385 -3.047 130.388 -3.081 C 123.805 -3.085 118.908 -0.229 115.273 5.711 C 111.132 12.477 106.658 19.007 102.068 25.741 C 101.023 20.222 102.561 15.43 105.75 10.904 C 109.544 5.52 112.758 -0.335 116.524 -5.743 C 119.465 -9.969 123.607 -12.103 128.649 -12.101 C 182.912 -12.083 237.174 -12.108 291.436 -12.071 C 299.272 -12.066 305.274 -5.856 305.475 2.146 C 305.715 11.711 311.466 17.727 320.451 17.729 C 362.094 17.74 403.739 18 445.378 17.539 C 455.233 17.43 463.538 24.499 462.042 36.288 Z" style="" transform="matrix(0.9999999999999999, 0, 0, 0.9999999999999999, -5.684341886080802e-14, -5.684341886080802e-14)"/>
  <path fill="#59CDF1" opacity="1.000000" stroke="none" d="M 107.04 317.602 C 108.537 310.213 109.909 302.528 112.073 295.11 C 120.457 266.377 129.123 237.738 137.628 209.045 C 148.6 172.025 159.532 134.992 170.453 97.954 C 173.413 87.916 177.51 84.622 187.359 84.621 C 278.711 84.606 370.062 84.595 461.812 84.565 C 479.385 84.57 496.578 85.128 513.723 84.403 C 522.996 84.012 531.06 91.499 529.395 102.258 C 525.623 93.929 519.152 91.685 510.532 91.703 C 402.821 91.923 295.108 91.846 187.396 91.848 C 177.403 91.848 173.289 95.225 170.32 105.509 C 164.84 124.483 159.323 143.443 153.74 162.381 C 139.275 211.453 124.775 260.513 110.248 309.563 C 109.452 312.252 108.277 314.81 107.04 317.602 Z" style="" transform="matrix(0.9999999999999999, 0, 0, 0.9999999999999999, -5.684341886080802e-14, -5.684341886080802e-14)"/>
</svg>